<svg width="64" height="50" viewBox="0 0 64 50" fill="none" xmlns="http://www.w3.org/2000/svg">
<g clip-path="url(#clip0_0_133)">
<path d="M59.1062 16.4594C60.4475 16.0957 61.8046 16.8902 62.1488 18.2106C62.5128 19.5507 61.7215 20.9066 60.3961 21.2545C59.0548 21.6182 57.6976 20.8236 57.3495 19.5033C57.0013 18.179 57.7966 16.823 59.1062 16.4594Z" fill="#2A4C87"/>
<path d="M51.9201 20.956C51.6748 20.0626 52.2208 19.1376 53.1111 18.8885C54.0053 18.6395 54.9351 19.185 55.1804 20.0784C55.4297 20.9718 54.8836 21.8968 53.9895 22.1459C53.0794 22.3752 52.1536 21.8454 51.9201 20.956Z" fill="#2A4C87"/>
<path d="M47.4972 22.1365C47.3152 21.4724 47.7148 20.7964 48.3755 20.6146C49.0363 20.4327 49.7168 20.8281 49.8988 21.4882C50.0808 22.1524 49.6852 22.8283 49.0204 23.0102C48.3597 23.192 47.6792 22.7967 47.4972 22.1365Z" fill="#2A4C87"/>
<path d="M44.2033 23.0254C44.1044 22.6143 44.3536 22.1834 44.7651 22.0687C45.1806 21.9699 45.6277 22.215 45.7266 22.6301C45.8255 23.0451 45.5762 23.4721 45.1647 23.5907C44.7335 23.6895 44.3022 23.4405 44.2033 23.0254Z" fill="#2E4E88"/>
<path d="M56.3345 11.4057C57.4107 10.7772 58.7836 11.1567 59.4127 12.2319C60.0418 13.3032 59.662 14.6789 58.5858 15.3035C57.5096 15.932 56.1367 15.5525 55.5076 14.4773C54.8785 13.406 55.2583 12.0303 56.3345 11.4057Z" fill="#1F3D70"/>
<path d="M51.1033 15.187C51.867 14.7561 52.8244 15.0051 53.2557 15.7681C53.687 16.5271 53.4377 17.4837 52.6781 17.9146C51.9144 18.3455 50.9569 18.0965 50.5257 17.3375C50.0944 16.5745 50.3595 15.6179 51.1033 15.187Z" fill="#1F3D70"/>
<path d="M48.525 18.4985C48.8375 19.044 48.6555 19.72 48.1095 20.0323C47.5635 20.3485 46.8869 20.1667 46.5704 19.6211C46.2578 19.0756 46.4398 18.3957 46.9859 18.0834C47.5319 17.7869 48.2243 17.9687 48.525 18.4985Z" fill="#1F3D70"/>
<path d="M44.8164 20.6428C45.0143 20.9907 44.8797 21.4374 44.5353 21.635C44.187 21.8327 43.7397 21.7022 43.5417 21.3543C43.3398 21.0065 43.4744 20.5598 43.8228 20.3621C44.1712 20.1645 44.6185 20.2949 44.8164 20.6428Z" fill="#1F3D70"/>
<path d="M52.3992 10.0683C51.6039 9.27373 51.6039 8.00082 52.3992 7.20625C53.1905 6.41563 54.4645 6.41563 55.2598 7.20625C56.0551 8.00082 56.0551 9.27373 55.2598 10.0683C54.4645 10.8629 53.1747 10.8629 52.3992 10.0683Z" fill="#194C88"/>
<path d="M50.3061 14.1947C49.7404 14.7758 48.8145 14.7758 48.2368 14.1947C47.6552 13.6333 47.6552 12.7083 48.2368 12.1311C48.7987 11.55 49.7245 11.55 50.3061 12.1311C50.8838 12.6925 50.8838 13.6175 50.3061 14.1947Z" fill="#194C88"/>
<path d="M46.4596 15.9978C46.8553 16.3773 46.8553 17.0217 46.4596 17.421C46.06 17.8163 45.4151 17.8163 45.0194 17.421C44.6237 17.0217 44.6237 16.3773 45.0194 15.982C45.4151 15.5867 46.06 15.5867 46.4596 15.9978Z" fill="#194C88"/>
<path d="M42.5095 18.9604C42.7747 18.6955 43.2062 18.6955 43.4714 18.9604C43.7366 19.2252 43.7366 19.6522 43.4714 19.917C43.2062 20.1819 42.7747 20.1819 42.5095 19.917C42.2442 19.6522 42.2442 19.2252 42.5095 18.9604Z" fill="#194C88"/>
<path d="M48.1215 6.65569C47.1956 6.12992 46.883 4.95585 47.4291 4.04663C47.9592 3.13742 49.1344 2.82117 50.0444 3.35089C50.9544 3.8806 51.267 5.05468 50.7368 5.96389C50.2066 6.87311 49.0315 7.1854 48.1215 6.65569Z" fill="#3468A3"/>
<path d="M46.5503 9.38591C47.1952 9.76936 47.4287 10.5956 47.0449 11.2399C46.6651 11.8843 45.8381 12.1136 45.1932 11.7341C44.5483 11.3546 44.3148 10.5284 44.6947 9.884C45.0587 9.23964 45.8896 9.00641 46.5503 9.38591Z" fill="#3468A3"/>
<path d="M44.1383 15.3402C43.8891 15.7711 43.343 15.9173 42.9157 15.6683C42.4845 15.4232 42.3341 14.8777 42.5834 14.4468C42.8326 14.0159 43.3787 13.8696 43.8099 14.1147C44.2372 14.3638 44.3876 14.9093 44.1383 15.3402Z" fill="#3468A3"/>
<path d="M41.95 18.5589C41.7837 18.8593 41.4037 18.9581 41.1068 18.7921C40.8059 18.6261 40.7069 18.2466 40.8732 17.9501C41.0395 17.6496 41.4195 17.5508 41.7204 17.7168C42.0172 17.8829 42.1162 18.2624 41.95 18.5589Z" fill="#3468A3"/>
<path d="M41.8164 2.26158C42.0617 1.30097 43.0548 0.73963 44.0163 0.988676C44.9777 1.23772 45.5554 2.22995 45.2903 3.18661C45.041 4.14721 44.0479 4.72437 43.0904 4.45951C42.129 4.21046 41.5513 3.22218 41.8164 2.26158Z" fill="#4C8DCB"/>
<path d="M40.689 8.59372C40.8711 7.9296 41.5516 7.53429 42.2123 7.71613C42.8731 7.89798 43.2727 8.57396 43.0907 9.23808C42.9087 9.89825 42.2282 10.2936 41.5674 10.1117C40.9067 9.92988 40.5229 9.25389 40.689 8.59372Z" fill="#4C8DCB"/>
<path d="M39.7845 13.551C39.8993 13.1043 40.3662 12.8394 40.8093 12.958C41.2564 13.0726 41.5215 13.5351 41.4067 13.9818C41.292 14.4285 40.8291 14.6934 40.382 14.5748C39.9349 14.4444 39.6698 13.9818 39.7845 13.551Z" fill="#4C8DCB"/>
<path d="M39.7559 16.9576C40.0528 17.0407 40.2349 17.3529 40.1518 17.6494C40.0687 17.9499 39.7559 18.1317 39.4551 18.0487C39.1582 17.9657 38.9761 17.6494 39.0592 17.3529C39.1265 17.0565 39.4393 16.8746 39.7559 16.9576Z" fill="#4C8DCB"/>
<path d="M37.6328 3.63768C38.5659 3.63768 39.3223 2.88194 39.3223 1.9497C39.3223 1.01745 38.5659 0.261719 37.6328 0.261719C36.6998 0.261719 35.9434 1.01745 35.9434 1.9497C35.9434 2.88194 36.6998 3.63768 37.6328 3.63768Z" fill="#3498B3"/>
<path d="M37.6334 9.47974C38.254 9.47974 38.7571 8.9771 38.7571 8.35706C38.7571 7.73702 38.254 7.23438 37.6334 7.23438C37.0129 7.23438 36.5098 7.73702 36.5098 8.35706C36.5098 8.9771 37.0129 9.47974 37.6334 9.47974Z" fill="#3498B3"/>
<path d="M37.6273 14.1673C38.0665 14.1673 38.4226 13.8115 38.4226 13.3727C38.4226 12.9339 38.0665 12.5781 37.6273 12.5781C37.1881 12.5781 36.832 12.9339 36.832 13.3727C36.832 13.8115 37.1881 14.1673 37.6273 14.1673Z" fill="#3498B3"/>
<path d="M37.6299 17.77C37.9141 17.77 38.1445 17.5399 38.1445 17.2561C38.1445 16.9723 37.9141 16.7422 37.6299 16.7422C37.3456 16.7422 37.1152 16.9723 37.1152 17.2561C37.1152 17.5399 37.3456 17.77 37.6299 17.77Z" fill="#3498B3"/>
<path d="M30.1825 3.15488C29.9491 2.31286 30.4476 1.45109 31.2904 1.22181C32.1371 0.988572 32.9957 1.48271 33.2291 2.32868C33.4586 3.17069 32.964 4.02852 32.1173 4.26175C31.2904 4.47522 30.416 3.98108 30.1825 3.15488Z" fill="#0AA496"/>
<path d="M33.1084 7.94779C33.6545 7.79758 34.2005 8.10987 34.3508 8.6554C34.5012 9.20093 34.1846 9.74646 33.6386 9.89668C33.0926 10.0469 32.5466 9.73065 32.3963 9.18512C32.2499 8.6554 32.5783 8.09406 33.1084 7.94779Z" fill="#0AA496"/>
<path d="M34.4879 13.0686C34.8679 12.9539 35.2796 13.1832 35.3785 13.5825C35.4973 13.962 35.2637 14.3731 34.8679 14.4719C34.4879 14.5905 34.0722 14.3573 33.9732 13.962C33.8743 13.5627 34.088 13.1674 34.4879 13.0686Z" fill="#0AA496"/>
<path d="M35.5613 17.0875C35.7949 17.0203 36.0443 17.1547 36.1076 17.4038C36.1749 17.6331 36.0443 17.8821 35.7949 17.9493C35.5613 18.0126 35.3159 17.8821 35.2486 17.6331C35.1813 17.384 35.3317 17.1547 35.5613 17.0875Z" fill="#0AA496"/>
<path d="M24.9411 5.75095C24.5455 5.05916 24.7908 4.14994 25.4871 3.75067C26.1835 3.35536 27.0935 3.60441 27.4892 4.2962C27.8888 4.99195 27.6395 5.90117 26.9432 6.29648C26.2468 6.69574 25.3566 6.46251 24.9411 5.75095Z" fill="#00AA75"/>
<path d="M28.6498 11.0216C28.4005 10.5946 28.5509 10.0491 28.9821 9.80007C29.4095 9.55102 29.9555 9.70124 30.2047 10.1321C30.454 10.5591 30.3036 11.1046 29.8724 11.3536C29.4451 11.6027 28.8793 11.4525 28.6498 11.0216Z" fill="#00AA75"/>
<path d="M31.3266 15.2574C31.1445 14.9253 31.2435 14.5142 31.5721 14.3324C31.9046 14.1505 32.3203 14.2494 32.5024 14.5775C32.6845 14.9095 32.5815 15.3246 32.253 15.5065C31.9363 15.6883 31.5246 15.5697 31.3266 15.2574Z" fill="#00AA75"/>
<path d="M34.038 18.628C33.8559 18.7269 33.6223 18.6597 33.5075 18.4778C33.4085 18.2802 33.4719 18.0509 33.654 17.9323C33.8559 17.8335 34.0855 17.9007 34.2003 18.0825C34.319 18.2644 34.2517 18.5134 34.038 18.628Z" fill="#00AA75"/>
<path d="M20.5012 9.61924C19.971 9.08952 19.971 8.23169 20.5012 7.70198C21.0313 7.17226 21.8899 7.17226 22.4201 7.70198C22.9503 8.23169 22.9503 9.08952 22.4201 9.61924C21.9058 10.149 21.0472 10.149 20.5012 9.61924Z" fill="#4FBA6A"/>
<path d="M26.5796 13.7512C26.2829 14.0675 25.7843 14.0675 25.4718 13.7512C25.1552 13.4548 25.1552 12.9606 25.4718 12.6444C25.7685 12.3321 26.267 12.3321 26.5796 12.6444C26.8764 12.9409 26.8764 13.439 26.5796 13.7512Z" fill="#4FBA6A"/>
<path d="M30.0073 17.1747C29.7579 17.4237 29.3778 17.4237 29.1285 17.1747C28.8791 16.9256 28.8791 16.5461 29.1285 16.2971C29.3778 16.052 29.7579 16.052 30.0073 16.2971C30.2408 16.5461 30.2408 16.9256 30.0073 17.1747Z" fill="#4FBA6A"/>
<path d="M32.5714 19.72C32.4407 19.8347 32.2428 19.8347 32.1082 19.72C31.9776 19.6054 31.9617 19.3879 32.0924 19.2575C32.2072 19.1231 32.4249 19.1073 32.5555 19.2417C32.6901 19.3721 32.6901 19.5896 32.5714 19.72Z" fill="#4FBA6A"/>
<path d="M16.7449 12.741C17.0773 12.1638 17.837 11.9503 18.4344 12.2943C19.0121 12.6263 19.2297 13.3853 18.8815 13.9822C18.5492 14.5594 17.7895 14.7768 17.192 14.4289C16.5985 14.0811 16.3968 13.3221 16.7449 12.741Z" fill="#7EC45F"/>
<path d="M23.9928 16.9405C23.791 17.2726 23.3951 17.3714 23.0626 17.1895C22.7498 16.9919 22.6311 16.5966 22.8171 16.2645C23.0151 15.9522 23.4109 15.8336 23.7435 16.0155C24.0562 16.1973 24.1749 16.6124 23.9928 16.9405Z" fill="#7EC45F"/>
<path d="M28.2509 19.3877C28.1005 19.6525 27.7521 19.7355 27.4869 19.5893C27.2058 19.4391 27.1227 19.0912 27.2731 18.8263C27.4196 18.5457 27.7679 18.4626 28.0332 18.6129C28.2984 18.7789 28.3974 19.1228 28.2509 19.3877Z" fill="#7EC45F"/>
<path d="M60.5424 27.4901C62.0414 27.4901 63.2566 26.2759 63.2566 24.7782C63.2566 23.2805 62.0414 22.0664 60.5424 22.0664C59.0433 22.0664 57.8281 23.2805 57.8281 24.7782C57.8281 26.2759 59.0433 27.4901 60.5424 27.4901Z" fill="#4C609B"/>
<path d="M54.1184 26.7138C55.1869 26.7138 56.0532 25.8483 56.0532 24.7807C56.0532 23.7131 55.1869 22.8477 54.1184 22.8477C53.0498 22.8477 52.1836 23.7131 52.1836 24.7807C52.1836 25.8483 53.0498 26.7138 54.1184 26.7138Z" fill="#4C609B"/>
<path d="M49.1028 26.1017C49.8348 26.1017 50.4283 25.5088 50.4283 24.7774C50.4283 24.046 49.8348 23.4531 49.1028 23.4531C48.3708 23.4531 47.7773 24.046 47.7773 24.7774C47.7773 25.5088 48.3708 26.1017 49.1028 26.1017Z" fill="#4C609B"/>
<path d="M45.2082 25.6415C45.6846 25.6415 46.0708 25.2557 46.0708 24.7797C46.0708 24.3038 45.6846 23.918 45.2082 23.918C44.7319 23.918 44.3457 24.3038 44.3457 24.7797C44.3457 25.2557 44.7319 25.6415 45.2082 25.6415Z" fill="#54669F"/>
<path d="M62.1377 31.3038V31.3236C61.7737 32.6439 60.4166 33.4385 59.0951 33.0748C57.7696 32.7111 56.9743 31.3552 57.3383 30.0309C57.7023 28.7106 59.0595 27.916 60.3849 28.2797C61.6906 28.6434 62.4859 29.9993 62.1377 31.3038Z" fill="#746FA7"/>
<path d="M51.9215 28.5768C52.1708 27.6873 53.0966 27.1418 53.9908 27.3869C54.885 27.6359 55.431 28.561 55.1817 29.4544C54.9364 30.3478 54.0066 30.8933 53.1124 30.6443C52.2024 30.3952 51.6762 29.4702 51.9215 28.5768Z" fill="#746FA7"/>
<path d="M47.4963 27.4062C47.6783 26.7421 48.3589 26.3468 49.0196 26.5286C49.6843 26.7105 50.08 27.3865 49.898 28.0506C49.716 28.7108 49.0354 29.1061 48.3747 28.9242C47.7139 28.7424 47.3341 28.0664 47.4963 27.4062Z" fill="#746FA7"/>
<path d="M44.1864 26.5284C44.3011 26.0975 44.7324 25.8484 45.1439 25.967C45.5751 26.0817 45.8244 26.5126 45.7097 26.9237C45.591 27.3546 45.1637 27.6036 44.7482 27.485C44.3169 27.3704 44.0716 26.9237 44.1864 26.5284Z" fill="#746FA7"/>
<path d="M59.4127 37.3093C58.7836 38.3846 57.4107 38.7641 56.3345 38.1395C55.2583 37.5109 54.8785 36.1392 55.5076 35.064C56.1367 33.9887 57.5096 33.6092 58.5858 34.2378C59.662 34.8663 60.026 36.238 59.4127 37.3093Z" fill="#99558E"/>
<path d="M51.1185 34.3523C50.3588 33.9214 50.1095 32.9647 50.5408 32.2018C50.9721 31.4428 51.9296 31.1937 52.6932 31.6246C53.4529 32.0555 53.7021 33.0122 53.2709 33.7751C52.8238 34.5183 51.8663 34.7832 51.1185 34.3523Z" fill="#99558E"/>
<path d="M46.986 31.4596C46.44 31.1473 46.258 30.4673 46.5705 29.9218C46.8871 29.3763 47.5636 29.1944 48.1097 29.5107C48.6557 29.823 48.8377 30.5029 48.5251 31.0484C48.2086 31.5742 47.532 31.756 46.986 31.4596Z" fill="#99558E"/>
<path d="M43.8396 29.1546H43.8238C43.4754 28.9371 43.3408 28.4944 43.5585 28.1465C43.7723 27.7986 44.2196 27.684 44.568 27.8816C44.9164 28.0951 45.0312 28.5418 44.8332 28.8897C44.6353 29.2376 44.188 29.3522 43.8396 29.1546Z" fill="#99558E"/>
<path d="M55.2432 39.4717C56.0385 40.2663 56.0385 41.5392 55.2432 42.3338C54.4479 43.1244 53.1739 43.1244 52.3786 42.3338C51.5873 41.5392 51.5873 40.2663 52.3786 39.4717C53.1739 38.6969 54.4638 38.6969 55.2432 39.4717Z" fill="#AF3379"/>
<path d="M48.237 37.4096C47.6554 36.8443 47.6554 35.9192 48.237 35.3421C48.7988 34.761 49.7247 34.761 50.3063 35.3421C50.884 35.9034 50.884 36.8285 50.3063 37.4096C49.7247 37.9867 48.7988 37.9867 48.237 37.4096Z" fill="#AF3379"/>
<path d="M45.0194 33.5399C44.6237 33.1604 44.6237 32.5161 45.0194 32.1168C45.4151 31.7215 46.06 31.7215 46.4596 32.1168C46.8553 32.5161 46.8553 33.1604 46.4596 33.5557C46.06 33.955 45.4151 33.955 45.0194 33.5399Z" fill="#AF3379"/>
<path d="M42.5095 29.601C42.7747 29.3361 43.2062 29.3361 43.4714 29.601C43.7366 29.8658 43.7366 30.2928 43.4714 30.5576C43.2062 30.8225 42.7747 30.8225 42.5095 30.5576C42.2442 30.2928 42.2442 29.8658 42.5095 29.601Z" fill="#AF3379"/>
<path d="M50.7438 43.571C51.274 44.4802 50.9614 45.6543 50.0514 46.184C49.1414 46.7138 47.9663 46.3975 47.4361 45.4883C46.9059 44.5791 47.2185 43.409 48.1285 42.8792C49.0385 42.3495 50.2136 42.6618 50.7438 43.571Z" fill="#BE266A"/>
<path d="M46.5386 40.1724C45.8739 40.5519 45.0628 40.3226 44.6829 39.6743C44.3031 39.0142 44.5365 38.2038 45.1815 37.8243C45.8422 37.4448 46.6533 37.674 47.0332 38.3224C47.413 38.9667 47.1835 39.7929 46.5386 40.1724Z" fill="#BE266A"/>
<path d="M42.5834 35.092C42.3341 34.6611 42.4845 34.1156 42.9157 33.8705C43.343 33.6215 43.8891 33.7717 44.1383 34.1986C44.3876 34.6295 44.2372 35.175 43.8099 35.4241C43.3787 35.6692 42.8326 35.5229 42.5834 35.092Z" fill="#BE266A"/>
<path d="M41.95 30.9766C42.1162 31.2731 42.0172 31.6526 41.7204 31.8186C41.4195 31.9846 41.0395 31.8858 40.8732 31.5893C40.7069 31.2889 40.8059 30.9094 41.1068 30.7433C41.4037 30.5773 41.7837 30.6801 41.95 30.9766Z" fill="#BE266A"/>
<path d="M45.2903 46.349C45.5554 47.3057 44.9777 48.2821 44.0163 48.5469C43.0548 48.8118 42.0815 48.2347 41.8164 47.274C41.5513 46.3174 42.129 45.341 43.0904 45.0761C44.0479 44.8113 45.041 45.3884 45.2903 46.349Z" fill="#D4525C"/>
<path d="M40.689 40.9256C40.5229 40.2654 40.9067 39.5894 41.5674 39.4076C42.2282 39.2257 42.9087 39.621 43.0907 40.2812C43.2727 40.9414 42.8731 41.6213 42.2123 41.8031C41.5516 41.985 40.8711 41.6055 40.689 40.9256Z" fill="#D4525C"/>
<path d="M40.8093 36.5787C40.3662 36.6973 39.8993 36.4325 39.7845 35.9858C39.6698 35.5391 39.9349 35.0765 40.382 34.9619C40.8291 34.8433 41.292 35.1082 41.4067 35.5549C41.5413 36.0174 41.2762 36.4799 40.8093 36.5787Z" fill="#D4525C"/>
<path d="M39.7384 32.5744C39.4217 32.6574 39.1248 32.4756 39.0416 32.1791C38.9585 31.8826 39.1406 31.5664 39.4375 31.4834C39.7384 31.4043 40.0511 31.5861 40.1342 31.8826C40.2174 32.1791 40.0353 32.4954 39.7384 32.5744Z" fill="#D4525C"/>
<path d="M37.6328 49.2783C38.5659 49.2783 39.3223 48.5226 39.3223 47.5903C39.3223 46.6581 38.5659 45.9023 37.6328 45.9023C36.6998 45.9023 35.9434 46.6581 35.9434 47.5903C35.9434 48.5226 36.6998 49.2783 37.6328 49.2783Z" fill="#E0654F"/>
<path d="M37.6334 42.2962C38.254 42.2962 38.7571 41.7935 38.7571 41.1735C38.7571 40.5534 38.254 40.0508 37.6334 40.0508C37.0129 40.0508 36.5098 40.5534 36.5098 41.1735C36.5098 41.7935 37.0129 42.2962 37.6334 42.2962Z" fill="#E0654F"/>
<path d="M37.6273 36.9485C38.0665 36.9485 38.4226 36.5928 38.4226 36.154C38.4226 35.7151 38.0665 35.3594 37.6273 35.3594C37.1881 35.3594 36.832 35.7151 36.832 36.154C36.832 36.5928 37.1881 36.9485 37.6273 36.9485Z" fill="#E0654F"/>
<path d="M37.6299 32.7934C37.9141 32.7934 38.1445 32.5634 38.1445 32.2795C38.1445 31.9957 37.9141 31.7656 37.6299 31.7656C37.3456 31.7656 37.1152 31.9957 37.1152 32.2795C37.1152 32.5634 37.3456 32.7934 37.6299 32.7934Z" fill="#E0654F"/>
<path d="M33.2339 47.2069C33.0004 48.0331 32.1419 48.547 31.2951 48.3177C30.4682 48.0844 29.9539 47.2266 30.1873 46.3806C30.4207 45.5544 31.2793 45.0445 32.1221 45.2738C32.9688 45.507 33.4634 46.3648 33.2339 47.2069Z" fill="#F57F2A"/>
<path d="M34.3508 40.8635C34.2005 41.3892 33.6545 41.7213 33.1084 41.5711C32.5783 41.4248 32.2499 40.8793 32.3963 40.3337C32.5466 39.804 33.0926 39.472 33.6386 39.6222C34.1846 39.7724 34.5012 40.3337 34.3508 40.8635Z" fill="#F57F2A"/>
<path d="M35.3775 35.9554C35.2786 36.3349 34.8827 36.5642 34.4868 36.4654C34.1028 36.3666 33.8732 35.9713 33.9722 35.572C34.0712 35.1925 34.467 34.9632 34.8669 35.062C35.2627 35.1767 35.4963 35.572 35.3775 35.9554Z" fill="#F57F2A"/>
<path d="M35.5822 32.4471C35.3487 32.3957 35.218 32.1348 35.2655 31.9015C35.317 31.6683 35.5822 31.5379 35.8118 31.5893C36.0454 31.6367 36.1919 31.8857 36.1285 32.1348C36.0612 32.3799 35.8118 32.5143 35.5822 32.4471Z" fill="#F57F2A"/>
<path d="M27.4715 45.2458C27.056 45.9376 26.1618 46.1708 25.4694 45.7755C24.7731 45.3604 24.5436 44.467 24.9393 43.7752C25.3547 43.0795 26.2449 42.8463 26.9413 43.2455C27.6377 43.6566 27.8869 44.5501 27.4715 45.2458Z" fill="#F89828"/>
<path d="M30.2047 39.4083C29.9555 39.8353 29.4095 39.9855 28.9821 39.7365C28.5509 39.4874 28.4005 38.9419 28.6498 38.5149C28.8991 38.0841 29.4451 37.9338 29.8724 38.1829C30.3036 38.4319 30.454 38.9775 30.2047 39.4083Z" fill="#F89828"/>
<path d="M31.3441 34.2835C31.5262 33.9554 31.9379 33.8526 32.2704 34.0345C32.6029 34.2163 32.7019 34.6314 32.5198 34.9635C32.3377 35.2916 31.922 35.3904 31.5935 35.2086C31.2609 35.0267 31.162 34.6156 31.3441 34.2835Z" fill="#F89828"/>
<path d="M34.2271 31.4411C34.1282 31.6388 33.8788 31.706 33.6967 31.5913C33.4987 31.4886 33.4314 31.2435 33.5462 31.0616C33.6452 30.864 33.8946 30.7968 34.0767 30.9114C34.2588 31.026 34.3261 31.2751 34.2271 31.4411Z" fill="#F89828"/>
<path d="M22.4435 39.9207C22.9737 40.4504 22.9737 41.3083 22.4435 41.838C21.9134 42.3677 21.0548 42.3677 20.5246 41.838C19.9944 41.3083 19.9944 40.4504 20.5246 39.9207C21.0548 39.391 21.9134 39.391 22.4435 39.9207Z" fill="#FEC127"/>
<path d="M26.5796 35.788C26.8961 36.0845 26.8764 36.5786 26.5796 36.8948C26.2829 37.2071 25.7843 37.2071 25.4718 36.8948C25.1552 36.5984 25.1552 36.1003 25.4718 35.788C25.7685 35.4717 26.2829 35.4717 26.5796 35.788Z" fill="#FEC127"/>
<path d="M30.0073 32.3626C30.2567 32.6116 30.2567 32.9911 30.0073 33.2402C29.7579 33.4853 29.3778 33.4853 29.1285 33.2402C28.8791 32.9911 28.8791 32.6116 29.1285 32.3626C29.362 32.1135 29.7579 32.1135 30.0073 32.3626Z" fill="#FEC127"/>
<path d="M32.5714 30.2952C32.4407 30.4138 32.2428 30.4138 32.1082 30.2952C31.9776 30.1805 31.9617 29.9671 32.0924 29.8327C32.2072 29.7022 32.4249 29.6864 32.5555 29.8169C32.6901 29.9513 32.6901 30.1647 32.5714 30.2952Z" fill="#FEC127"/>
<path d="M18.9194 35.5244C19.2676 36.1174 19.0698 36.8645 18.4723 37.2084C17.8789 37.5563 17.135 37.3586 16.7868 36.7617C16.4387 36.1688 16.6365 35.4256 17.2339 35.0777C17.8274 34.7298 18.591 34.9275 18.9194 35.5244Z" fill="#FED627"/>
<path d="M23.9928 32.6013C24.1749 32.9294 24.0562 33.3445 23.7435 33.5263C23.4109 33.7082 22.9992 33.5935 22.8171 33.2773C22.6311 32.9452 22.7498 32.5341 23.0626 32.3522C23.3951 32.1704 23.8068 32.285 23.9928 32.6013Z" fill="#FED627"/>
<path d="M28.227 30.1502C28.3933 30.415 28.2943 30.7589 28.0291 30.9092C27.7638 31.0752 27.4155 30.9764 27.269 30.7115C27.1028 30.4466 27.2017 30.0988 27.467 29.9525C27.7322 29.7865 28.0805 29.8853 28.227 30.1502Z" fill="#FED627"/>
<path fill-rule="evenodd" clip-rule="evenodd" d="M14.713 20.8383H16.6992V28.4758H14.713V20.8383ZM16.7309 18.8381C16.5647 19.4508 15.9356 19.8145 15.3263 19.6485C14.713 19.4824 14.349 18.8578 14.5152 18.2451C14.6774 17.6324 15.3065 17.2687 15.9198 17.4347C16.533 17.5849 16.897 18.2293 16.7309 18.8381ZM22.8399 28.6418C22.3572 28.6418 21.8784 28.5588 21.4313 28.3611C21.0357 28.1793 20.6875 27.8986 20.4224 27.5507V32.2945H18.4876V20.8383H20.4066V21.8978C20.6558 21.5183 21.0001 21.2218 21.4155 21.0044C21.8468 20.7909 22.3255 20.6763 22.824 20.6763C23.3028 20.6763 23.7657 20.7751 24.2128 20.9569C24.6599 21.1388 25.0556 21.4195 25.3879 21.7476C25.7361 22.1112 26.017 22.5421 26.199 23.0047C26.4127 23.5344 26.5116 24.0799 26.4958 24.6412C26.5116 25.2026 26.3969 25.7679 26.1832 26.2936C25.9814 26.7562 25.7005 27.187 25.3563 27.5507C24.7074 28.2465 23.7815 28.6418 22.8399 28.6418ZM22.4403 26.7917C22.7212 26.7917 23.0061 26.7403 23.2672 26.6257C23.5165 26.5111 23.7499 26.3608 23.9477 26.1632C24.1456 25.9655 24.2959 25.7323 24.3948 25.4833C24.6085 24.9377 24.6085 24.3448 24.3948 23.7992C24.2959 23.5502 24.1297 23.3209 23.9477 23.1193C23.7499 22.9216 23.5165 22.7754 23.2672 22.6568C23.0061 22.5421 22.7212 22.4947 22.4403 22.4947C21.8784 22.4947 21.3324 22.724 20.917 23.1193C20.7191 23.3209 20.5727 23.5502 20.4738 23.7992C20.2562 24.3448 20.2562 24.9377 20.4738 25.4674C20.5727 25.7165 20.7191 25.9497 20.917 26.1474C21.3324 26.5743 21.8784 26.8075 22.4403 26.7917ZM27.9202 20.8383H29.8391V22.0124C30.0053 21.6013 30.2862 21.2534 30.666 21.0202C31.0657 20.8067 31.493 20.6921 31.9599 20.7079C32.2052 20.7079 32.4386 20.7395 32.6681 20.7909C32.8699 20.8383 33.0677 20.9055 33.2497 21.0044L32.5375 22.9216C32.403 22.8386 32.2566 22.7754 32.1062 22.724C31.9084 22.6765 31.7106 22.641 31.5128 22.641C31.0657 22.6252 30.6344 22.7754 30.302 23.056C30.0053 23.3367 29.8549 23.7992 29.8549 24.4278V28.4599H27.9202V20.8383ZM37.5703 28.6418C37.0243 28.6418 36.4783 28.543 35.9639 28.3295C35.4852 28.1279 35.0539 27.8314 34.6741 27.4677C33.9263 26.7245 33.5148 25.7165 33.5148 24.6571C33.5148 24.1273 33.6137 23.6016 33.8115 23.1035C34.0094 22.6252 34.2903 22.1943 34.6543 21.8306C36.2607 20.277 38.8087 20.277 40.4151 21.8306C41.159 22.5738 41.5902 23.5818 41.5902 24.6412C41.5902 25.171 41.4913 25.7007 41.2777 26.179C41.0759 26.6573 40.7791 27.0882 40.4309 27.4519C40.0669 27.8156 39.6357 28.1121 39.1411 28.3097C38.6623 28.5271 38.1163 28.6418 37.5703 28.6418ZM37.5861 26.7917C37.8671 26.7917 38.148 26.7403 38.4131 26.6257C38.6623 26.5111 38.876 26.3608 39.0738 26.179C39.2717 25.9813 39.422 25.7481 39.5209 25.4991C39.7385 24.9535 39.7385 24.3606 39.5209 23.8309C39.422 23.5818 39.2717 23.3525 39.0738 23.1549C38.876 22.9533 38.6623 22.807 38.4131 22.7082C37.8829 22.4749 37.2854 22.4749 36.775 22.7082C36.5258 22.8228 36.3121 22.973 36.1103 23.1549C35.9125 23.3525 35.7661 23.5818 35.6672 23.8309C35.4496 24.3764 35.4496 24.9733 35.6672 25.4991C35.7661 25.7481 35.9125 25.9813 36.1103 26.179C36.3121 26.3767 36.5258 26.5269 36.775 26.6257C37.0243 26.7245 37.3052 26.7917 37.5861 26.7917ZM0.892578 20.8383H2.87879L4.41791 25.7165L6.23795 20.8383H7.95908L9.74746 25.7165L11.3538 20.8383H13.3401L10.7406 28.4758H8.90471L7.08071 23.4988L5.24484 28.4758H3.37337L0.892578 20.8383Z" fill="#351A55"/>
</g>
<defs>
<clipPath id="clip0_0_133">
<rect width="62.4352" height="49.0186" fill="white" transform="translate(0.851562 0.257812)"/>
</clipPath>
</defs>
</svg>
