<svg width="13" height="8" viewBox="0 0 13 8" fill="none" xmlns="http://www.w3.org/2000/svg">
<path fill-rule="evenodd" clip-rule="evenodd" d="M12.7147 0.245668C12.9663 0.517129 12.9663 0.956158 12.7147 1.22695L7.38329 6.9665C7.26577 7.09498 7.12432 7.19728 6.96756 7.26718C6.81079 7.33709 6.64198 7.37314 6.47139 7.37314C6.30079 7.37314 6.13198 7.33709 5.97521 7.26718C5.81845 7.19728 5.677 7.09498 5.55948 6.9665L0.188709 1.18539C0.068679 1.05419 0.00121446 0.880438 1.62374e-05 0.699428C-0.00118199 0.518418 0.063976 0.343721 0.182257 0.210814C0.240668 0.144974 0.311467 0.0922938 0.390268 0.0560349C0.46907 0.019776 0.554198 0.000710671 0.640379 1.94917e-05C0.726561 -0.000671688 0.811961 0.017026 0.891293 0.0520167C0.970624 0.0870074 1.0422 0.138546 1.10158 0.203441L6.0156 5.49458C6.07436 5.55887 6.1451 5.61006 6.22351 5.64505C6.30193 5.68003 6.38637 5.69807 6.47171 5.69807C6.55704 5.69807 6.64149 5.68003 6.7199 5.64505C6.79832 5.61006 6.86906 5.55887 6.92782 5.49458L11.8031 0.245668C11.8618 0.181396 11.9325 0.130213 12.0109 0.0952361C12.0892 0.0602596 12.1736 0.042222 12.2589 0.042222C12.3442 0.042222 12.4286 0.0602596 12.507 0.0952361C12.5853 0.130213 12.656 0.181396 12.7147 0.245668Z" fill="#111010"/>
</svg>
